{"glyphs":{"0":{"ha":911,"x_min":78,"x_max":911,"o":"m 910 546 q 877 335 908 436 q 788 155 846 233 q 646 30 729 76 q 456 -17 563 -17 l 453 -17 l 450 -17 q 267 30 343 -17 q 148 155 192 76 q 91 335 104 233 q 94 546 78 436 q 134 691 104 613 q 217 838 164 769 q 350 951 271 906 q 539 996 429 996 l 542 996 l 544 996 q 724 951 653 996 q 838 838 796 906 q 895 691 879 769 q 910 546 911 613 m 465 121 q 557 163 515 121 q 628 267 599 204 q 673 403 657 329 q 690 542 689 476 q 690 580 690 553 q 684 642 689 607 q 669 714 679 676 q 642 783 660 751 q 597 834 624 814 q 529 854 569 854 q 458 834 489 854 q 403 783 426 814 q 364 714 381 751 q 337 642 347 676 q 321 580 326 607 q 314 542 315 553 q 306 403 303 476 q 328 267 310 329 q 381 163 347 204 q 465 121 415 121 z "},"1":{"ha":475,"x_min":119,"x_max":511,"o":"m 511 979 l 426 0 l 168 0 l 240 829 l 119 829 q 175 864 149 843 q 219 910 197 882 q 253 979 242 939 l 511 979 z "},"2":{"ha":900,"x_min":50,"x_max":906,"o":"m 694 318 q 647 284 675 303 q 587 243 619 265 q 519 197 554 221 q 449 151 483 174 l 860 151 l 847 0 l 50 0 l 67 201 q 272 331 175 268 q 356 385 314 357 q 438 439 399 413 q 510 488 476 465 q 564 529 543 511 q 624 599 604 561 q 647 668 644 638 q 627 753 651 719 q 561 803 603 786 q 465 821 519 819 q 354 813 410 822 q 247 782 299 803 q 157 733 194 761 l 146 890 q 253 949 183 921 q 409 990 322 978 q 590 988 496 1001 q 768 924 683 975 q 817 883 793 908 q 861 825 842 857 q 893 754 881 793 q 906 674 906 715 q 901 615 906 651 q 877 533 897 579 q 814 431 857 486 q 694 318 771 376 z "},"3":{"ha":857,"x_min":53,"x_max":878,"o":"m 838 346 q 818 213 840 269 q 757 115 796 156 q 667 47 718 74 q 563 6 617 21 q 456 -14 508 -8 q 360 -17 403 -19 q 290 -8 331 -15 q 206 15 249 0 q 122 55 163 31 q 53 113 81 79 l 99 247 q 185 162 128 200 q 332 117 242 124 q 430 124 383 113 q 512 160 476 136 q 569 219 547 183 q 590 299 590 254 q 548 403 590 369 q 432 436 506 436 l 301 436 l 315 588 l 446 588 q 569 617 518 588 q 628 715 619 646 q 616 785 632 756 q 569 832 600 814 q 493 858 538 850 q 397 861 449 865 q 242 816 306 854 q 142 731 178 778 l 118 865 q 198 923 153 899 q 289 963 243 947 q 377 985 335 978 q 449 994 419 993 q 543 994 492 997 q 645 978 594 990 q 741 944 696 967 q 818 883 786 921 q 864 792 850 846 q 865 664 878 738 q 832 581 858 622 q 757 507 806 540 q 818 429 800 472 q 838 346 836 386 z "},"4":{"ha":875,"x_min":67,"x_max":860,"o":"m 860 389 l 846 235 l 783 235 l 764 0 l 501 0 l 521 235 l 67 235 l 81 389 l 588 996 l 850 996 l 797 389 l 860 389 m 272 389 l 535 389 l 565 739 l 272 389 z "},"5":{"ha":913,"x_min":72,"x_max":943,"o":"m 476 664 q 614 651 544 665 q 740 606 683 638 q 832 527 796 575 q 871 415 868 479 q 842 244 875 318 q 755 119 810 171 q 628 35 700 67 q 483 -9 557 3 q 341 -15 410 -21 q 224 13 272 -10 q 153 59 182 32 q 107 115 125 86 q 81 172 89 143 q 72 221 74 200 l 194 281 q 200 247 194 267 q 219 208 206 228 q 253 172 232 189 q 304 149 274 156 q 416 147 363 136 q 511 186 469 158 q 578 254 553 214 q 607 339 604 294 q 597 395 608 367 q 563 447 586 424 q 505 488 540 471 q 421 510 469 506 q 332 511 371 514 q 261 500 293 508 q 202 480 229 492 q 150 457 175 468 l 289 979 l 943 979 l 871 829 l 517 829 l 476 664 z "},"6":{"ha":904,"x_min":74,"x_max":894,"o":"m 885 422 q 869 261 894 340 q 787 119 843 182 q 647 19 731 57 q 460 -17 564 -18 q 272 32 357 -15 q 138 161 188 79 q 81 353 89 243 q 125 588 74 463 q 224 756 163 682 q 367 882 285 831 q 550 958 449 933 q 769 979 651 983 l 767 879 q 542 797 635 863 q 386 624 450 732 q 462 657 425 647 q 533 669 499 667 q 667 659 606 675 q 774 610 728 643 q 849 528 819 576 q 885 422 878 481 m 478 149 q 572 165 529 146 q 644 217 615 185 q 688 293 674 250 q 700 381 703 336 q 647 500 696 458 q 521 542 599 542 q 433 522 474 542 q 363 469 392 503 q 318 392 333 436 q 307 301 303 349 q 322 247 310 274 q 357 199 335 221 q 409 164 379 178 q 478 149 439 150 z "},"7":{"ha":867,"x_min":122,"x_max":901,"o":"m 901 979 l 889 829 q 791 722 842 782 q 692 592 740 661 q 601 447 644 522 q 522 294 557 371 q 460 142 486 217 q 425 0 435 68 l 167 0 q 214 210 176 100 q 306 428 251 319 q 428 640 361 538 q 561 829 494 743 l 122 829 l 135 979 l 901 979 z "},"8":{"ha":897,"x_min":63,"x_max":888,"o":"m 813 475 q 870 375 853 435 q 872 249 888 315 q 817 134 857 183 q 720 51 778 85 q 590 1 663 18 q 439 -17 518 -17 q 326 -6 392 -17 q 197 40 260 4 q 126 107 161 61 q 77 215 92 153 q 79 350 63 276 q 164 500 96 424 q 118 599 125 549 q 121 692 111 649 q 166 803 133 751 q 244 893 199 854 q 346 957 290 932 q 461 990 401 982 q 683 968 582 1006 q 838 850 783 931 q 876 767 864 813 q 885 671 888 721 q 865 571 883 621 q 813 475 847 521 m 628 815 q 537 826 585 828 q 449 810 489 824 q 381 772 408 797 q 351 714 353 747 q 369 664 350 685 q 416 628 389 643 q 469 606 443 614 q 506 596 494 599 q 615 569 565 581 q 704 542 664 557 q 756 628 744 585 q 756 708 768 671 q 710 773 743 744 q 628 815 678 801 m 649 249 q 642 296 654 278 q 606 326 631 314 q 551 346 582 339 q 486 360 519 353 q 346 391 400 376 q 253 426 292 406 q 215 340 224 381 q 215 267 207 300 q 244 211 222 235 q 296 175 265 188 q 417 149 357 150 q 527 160 478 147 q 610 198 576 174 q 649 249 643 222 z "},"9":{"ha":907,"x_min":93,"x_max":915,"o":"m 103 556 q 119 717 93 638 q 201 858 144 796 q 340 958 257 921 q 528 994 424 996 q 716 946 632 993 q 850 817 800 899 q 908 625 900 735 q 864 390 915 515 q 765 222 826 296 q 621 96 703 147 q 438 19 539 44 q 218 -1 336 -6 l 222 99 q 446 181 353 115 q 603 354 539 246 q 526 321 564 331 q 456 308 489 311 q 322 319 383 303 q 215 368 261 335 q 140 449 168 401 q 103 556 111 497 m 511 829 q 416 812 458 831 q 344 760 374 793 q 300 685 315 728 q 288 597 285 642 q 342 478 293 519 q 468 436 390 436 q 556 456 515 436 q 626 508 597 475 q 670 585 656 542 q 681 676 685 629 q 665 731 678 704 q 631 778 653 757 q 579 814 610 800 q 511 829 549 828 z "},"\u0000":{"ha":0,"x_min":0,"x_max":0,"o":""},"\r":{"ha":396,"x_min":0,"x_max":0,"o":""}," ":{"ha":572,"x_min":0,"x_max":0,"o":""},"F":{"ha":763,"x_min":40,"x_max":799,"o":"m 315 0 l 40 0 l 131 1042 l 760 1042 l 799 882 l 392 882 l 364 567 l 668 567 l 654 406 l 350 406 l 315 0 z "},"G":{"ha":976,"x_min":85,"x_max":992,"o":"m 963 486 q 952 360 956 406 q 946 286 949 315 q 941 234 943 257 q 935 174 939 211 q 853 92 900 126 q 756 33 806 57 q 657 -3 706 10 q 569 -17 608 -15 q 334 25 432 -24 q 179 158 236 74 q 103 354 122 243 q 106 582 85 465 q 155 733 118 653 q 253 882 192 813 q 403 1000 315 951 q 603 1057 490 1049 q 743 1049 678 1063 q 859 1002 808 1035 q 944 919 910 969 q 992 801 979 868 l 863 710 q 835 794 857 757 q 779 853 813 831 q 703 881 746 875 q 613 876 660 888 q 505 819 547 861 q 436 728 463 776 q 397 637 410 681 q 381 576 385 593 q 369 401 360 479 q 407 269 378 324 q 479 185 436 215 q 568 156 522 156 q 661 175 618 156 l 688 486 l 963 486 l 963 486 z "},"H":{"ha":986,"x_min":60,"x_max":1017,"o":"m 742 1042 l 1017 1042 l 926 0 l 651 0 l 686 406 l 369 406 l 335 0 l 60 0 l 150 1042 l 425 1042 l 383 565 l 700 565 l 742 1042 l 742 1042 z "},"I":{"ha":382,"x_min":53,"x_max":418,"o":"m 328 0 l 53 0 l 143 1042 l 418 1042 l 328 0 l 328 0 z "},"J":{"ha":524,"x_min":36,"x_max":556,"o":"m 36 -224 l 76 -74 q 110 -69 92 -75 q 147 -49 129 -64 q 177 -8 164 -33 q 194 56 190 18 l 281 1042 l 556 1042 l 479 165 q 457 53 474 103 q 418 -35 440 3 q 371 -101 396 -74 q 322 -147 346 -129 q 251 -192 289 -175 q 175 -217 213 -208 q 101 -228 138 -226 q 36 -224 65 -229 z "},"K":{"ha":975,"x_min":43,"x_max":989,"o":"m 607 0 l 383 414 l 350 381 l 318 0 l 43 0 l 133 1042 l 408 1042 l 372 624 l 775 1042 l 989 1042 l 590 629 l 932 0 l 607 0 l 607 0 z "},"L":{"ha":778,"x_min":47,"x_max":743,"o":"m 336 160 l 743 160 l 676 0 l 47 0 l 138 1042 l 413 1042 l 336 160 l 336 160 z "},"M":{"ha":1099,"x_min":56,"x_max":1132,"o":"m 1132 1042 l 1042 0 l 767 0 l 815 567 l 572 0 l 413 0 l 265 565 l 217 0 l 56 0 l 146 1042 l 432 1042 l 581 469 l 828 1042 l 1132 1042 z "},"N":{"ha":943,"x_min":53,"x_max":981,"o":"m 981 1042 l 890 0 l 729 0 l 267 615 l 214 0 l 53 0 l 143 1042 l 304 1042 l 765 428 l 819 1042 l 981 1042 l 981 1042 z "},"O":{"ha":961,"x_min":81,"x_max":964,"o":"m 964 581 q 931 370 961 476 q 841 178 901 264 q 690 38 781 92 q 478 -17 600 -17 q 282 35 363 -17 q 155 170 201 86 q 94 362 108 254 q 97 581 81 469 q 149 758 111 672 q 247 911 188 844 q 388 1018 307 978 q 572 1058 469 1058 q 746 1020 672 1058 q 867 916 819 982 q 939 763 915 850 q 964 581 963 676 m 494 160 q 572 181 538 160 q 631 236 606 201 q 676 315 657 271 q 706 405 694 358 q 724 496 718 451 q 731 576 729 540 q 725 673 732 619 q 699 773 718 726 q 645 851 679 819 q 557 882 611 882 q 465 851 504 882 q 397 774 425 819 q 353 674 369 728 q 331 576 336 621 q 323 499 325 543 q 324 410 321 456 q 338 319 328 364 q 367 240 347 275 q 419 182 388 204 q 494 160 450 160 z "},"P":{"ha":925,"x_min":44,"x_max":950,"o":"m 599 1040 q 765 1013 694 1040 q 877 938 835 986 q 935 821 919 889 q 936 672 950 753 q 905 585 929 632 q 834 498 881 538 q 714 432 788 458 q 535 406 640 406 l 354 406 l 319 0 l 44 0 l 135 1042 l 599 1040 m 511 565 q 556 569 529 565 q 609 588 583 572 q 655 634 635 603 q 681 724 675 665 q 671 803 685 772 q 633 851 657 833 q 578 874 608 868 q 521 881 549 881 l 396 881 l 368 565 l 511 565 z "},"Q":{"ha":961,"x_min":82,"x_max":964,"o":"m 661 25 q 676 -42 667 -8 q 701 -107 685 -76 q 743 -162 718 -137 q 804 -200 768 -187 q 703 -226 758 -228 q 593 -197 647 -224 q 490 -122 539 -171 q 411 -8 442 -74 q 248 60 315 6 q 142 194 181 114 q 93 375 104 275 q 99 582 82 475 q 142 736 110 653 q 230 891 174 819 q 370 1010 286 963 q 569 1058 454 1058 l 572 1058 l 575 1058 q 766 1010 690 1058 q 885 891 842 963 q 947 736 929 819 q 963 582 964 653 q 940 406 961 492 q 881 247 919 321 q 788 116 843 174 q 661 25 732 58 m 331 578 q 322 436 319 510 q 344 302 325 363 q 399 202 363 242 q 492 163 435 163 l 494 163 l 497 163 q 597 202 554 163 q 669 302 640 242 q 714 436 699 363 q 731 578 729 510 q 729 616 731 589 q 722 677 728 643 q 706 747 717 711 q 676 813 694 783 q 628 863 657 843 q 560 882 600 882 l 557 882 l 554 882 q 482 863 514 882 q 426 813 450 843 q 385 747 403 783 q 356 677 368 711 q 338 616 344 643 q 331 578 332 589 z "},"R":{"ha":915,"x_min":42,"x_max":929,"o":"m 351 406 l 317 0 l 42 0 l 132 1042 l 579 1042 q 744 1015 675 1042 q 856 938 814 988 q 914 821 899 889 q 915 672 929 753 q 892 602 908 639 q 847 531 876 565 q 771 468 817 497 q 661 422 725 439 l 872 0 l 553 0 l 351 406 m 393 881 l 365 565 l 490 565 q 535 569 508 565 q 589 588 563 572 q 635 634 615 603 q 661 724 656 665 q 651 803 665 772 q 612 851 636 833 q 558 874 588 868 q 500 881 528 881 l 393 881 z "},"S":{"ha":989,"x_min":67,"x_max":992,"o":"m 910 500 q 961 401 947 451 q 964 286 975 350 q 910 161 951 217 q 808 66 869 106 q 672 5 747 26 q 517 -17 597 -17 q 389 -8 456 -17 q 260 28 322 1 q 147 106 197 56 q 67 238 96 156 l 218 347 q 231 291 219 318 q 262 242 243 264 q 304 204 281 221 q 353 179 328 188 q 485 157 419 156 q 601 175 550 158 q 687 219 653 192 q 725 275 721 246 q 717 326 731 306 q 677 358 703 346 q 617 375 651 369 q 547 383 582 381 q 394 407 460 390 q 285 447 328 424 q 201 510 232 476 q 154 578 169 543 q 137 649 139 614 q 140 715 135 683 q 217 890 157 817 q 361 1004 276 963 q 543 1055 446 1046 q 732 1039 640 1064 q 896 956 828 1011 q 992 825 964 900 l 851 721 q 844 760 853 738 q 814 804 835 782 q 758 844 793 826 q 672 872 724 863 q 576 876 626 881 q 483 856 525 872 q 413 814 440 840 q 385 751 385 788 q 407 699 385 721 q 458 664 429 678 q 515 643 488 650 q 554 635 543 636 q 773 590 685 618 q 910 500 861 561 z "},"T":{"ha":969,"x_min":119,"x_max":1003,"o":"m 1003 881 l 699 881 l 622 0 l 347 0 l 424 881 l 119 881 l 186 1042 l 964 1042 l 1003 881 z "},"U":{"ha":972,"x_min":83,"x_max":1007,"o":"m 1007 1042 l 950 389 q 903 215 940 290 q 806 88 867 139 q 664 10 746 36 q 483 -17 582 -17 q 309 10 385 -17 q 183 90 233 38 q 108 217 132 142 q 89 389 83 292 l 146 1042 l 421 1042 l 358 333 q 365 269 356 300 q 392 213 374 238 q 437 174 410 189 q 500 160 464 160 q 566 174 536 160 q 618 213 596 189 q 653 269 640 238 q 671 332 667 300 l 733 1042 l 1007 1042 z "},"V":{"ha":1022,"x_min":149,"x_max":1053,"o":"m 643 0 l 381 0 l 149 1042 l 436 1042 l 590 347 l 864 1042 l 1053 1042 l 643 0 z "},"W":{"ha":1349,"x_min":161,"x_max":1368,"o":"m 1183 1042 l 1368 1042 l 1068 0 l 728 0 l 703 332 l 608 0 l 281 0 l 161 1042 l 442 1042 l 521 343 l 694 1042 l 931 1042 l 981 339 l 1183 1042 l 1183 1042 z "},"X":{"ha":965,"x_min":49,"x_max":1006,"o":"m 1006 1042 l 654 569 l 915 0 l 615 0 l 469 318 l 233 0 l 49 0 l 399 472 l 139 1042 l 439 1042 l 585 722 l 822 1042 l 1006 1042 l 1006 1042 z "},"Y":{"ha":985,"x_min":149,"x_max":1015,"o":"m 832 1042 l 1015 1042 l 650 549 l 603 0 l 328 0 l 375 546 l 149 1042 l 449 1042 l 594 722 l 832 1042 l 832 1042 z "},"Z":{"ha":985,"x_min":58,"x_max":1015,"o":"m 874 160 l 911 0 l 58 0 l 614 882 l 210 882 l 276 1042 l 1015 1042 l 460 160 l 874 160 l 874 160 z "},"a":{"ha":1013,"x_min":60,"x_max":951,"o":"m 664 0 l 622 181 l 319 181 l 249 0 l 60 0 l 444 979 l 733 979 l 951 0 l 664 0 m 383 342 l 588 342 l 514 674 l 383 342 z "},"b":{"ha":954,"x_min":43,"x_max":963,"o":"m 851 499 q 918 412 896 465 q 933 283 940 358 q 906 188 929 238 q 835 96 883 138 q 713 27 788 54 q 532 0 638 0 l 43 0 l 128 979 l 592 979 q 874 888 786 979 q 931 631 963 796 q 851 499 915 554 m 389 819 l 367 567 l 510 567 q 555 570 528 567 q 608 586 582 574 q 653 622 633 599 q 676 683 672 644 q 667 759 682 732 q 628 800 653 786 q 572 817 603 814 q 514 819 542 819 l 389 819 m 508 161 q 553 164 526 161 q 606 178 581 167 q 651 215 632 190 q 675 283 671 239 q 663 354 679 329 q 619 390 646 379 q 563 403 593 401 q 511 406 533 406 l 353 406 l 332 160 q 420 160 376 160 q 508 161 464 160 z "},"d":{"ha":915,"x_min":49,"x_max":914,"o":"m 910 532 q 866 323 904 419 q 759 154 828 226 q 592 41 690 82 q 369 0 494 0 l 49 0 l 133 979 l 468 979 q 653 947 569 979 q 794 857 736 915 q 883 716 853 799 q 910 532 914 633 m 347 150 q 481 178 424 150 q 577 258 538 207 q 638 378 617 310 q 667 529 660 447 q 662 649 671 594 q 624 744 653 704 q 542 806 594 783 q 407 828 489 828 l 379 828 l 319 150 l 347 150 z "},"c":{"ha":953,"x_min":71,"x_max":975,"o":"m 560 -17 q 335 22 432 -19 q 178 135 239 63 q 94 308 118 208 q 89 519 71 407 q 144 697 103 613 q 251 844 186 781 q 400 949 315 908 q 588 994 485 989 q 728 984 663 999 q 844 938 793 969 q 928 856 894 906 q 975 739 963 806 l 846 647 q 819 731 840 694 q 764 790 797 768 q 687 818 731 811 q 596 814 643 825 q 500 768 540 801 q 431 691 460 735 q 387 600 403 647 q 365 514 371 553 q 363 354 351 421 q 401 244 374 288 q 470 178 429 200 q 557 156 511 157 q 644 172 604 154 q 714 217 685 189 q 761 278 743 244 q 785 344 779 313 l 933 274 q 877 170 910 221 q 800 79 844 119 q 696 13 756 39 q 560 -17 636 -12 z "},"f":{"ha":724,"x_min":42,"x_max":754,"o":"m 372 829 l 346 532 l 632 532 l 618 381 l 332 381 l 300 0 l 42 0 l 126 979 l 718 979 l 754 829 l 372 829 l 372 829 z "},"g":{"ha":958,"x_min":72,"x_max":976,"o":"m 942 485 q 931 360 935 406 q 925 286 928 315 q 920 233 922 257 q 914 174 918 210 q 863 110 897 143 q 781 48 829 76 q 674 1 733 19 q 549 -17 615 -17 q 341 21 433 -17 q 187 128 249 58 q 99 297 125 199 q 90 518 72 396 q 137 675 101 594 q 233 824 172 756 q 379 938 293 892 q 578 993 465 985 q 719 985 653 999 q 840 940 786 972 q 928 858 893 908 q 976 739 964 807 l 849 647 q 821 731 843 694 q 763 790 799 768 q 683 819 728 813 q 588 811 638 825 q 481 752 522 794 q 415 663 440 710 q 380 573 390 615 q 367 514 369 531 q 362 363 353 428 q 397 252 371 297 q 463 183 424 207 q 547 156 501 160 q 597 157 574 153 q 639 168 619 161 l 667 485 l 942 485 l 942 485 z "},"e":{"ha":724,"x_min":42,"x_max":754,"o":"m 333 382 l 313 150 l 694 150 l 633 0 l 42 0 l 126 979 l 718 979 l 754 829 l 372 829 l 346 532 l 632 532 l 619 382 l 333 382 l 333 382 z "},"h":{"ha":983,"x_min":58,"x_max":1010,"o":"m 735 979 l 1010 979 l 925 0 l 650 0 l 685 406 l 368 406 l 333 0 l 58 0 l 143 979 l 418 979 l 382 567 l 699 567 l 735 979 l 735 979 z "},"i":{"ha":375,"x_min":50,"x_max":410,"o":"m 325 0 l 50 0 l 135 979 l 410 979 l 325 0 l 325 0 z "},"j":{"ha":522,"x_min":38,"x_max":549,"o":"m 38 -222 l 76 -74 q 110 -69 92 -75 q 147 -47 129 -62 q 177 -6 164 -32 q 194 57 190 19 l 275 979 l 549 979 l 478 165 q 456 53 472 103 q 417 -35 439 3 q 371 -101 396 -74 q 322 -146 346 -128 q 251 -190 289 -174 q 175 -216 213 -207 q 102 -226 138 -225 q 38 -222 67 -228 z "},"k":{"ha":989,"x_min":50,"x_max":986,"o":"m 614 0 l 408 379 l 353 321 l 325 0 l 50 0 l 135 979 l 410 979 l 374 564 l 774 979 l 986 979 l 617 594 l 939 0 l 614 0 l 614 0 z "},"l":{"ha":778,"x_min":47,"x_max":743,"o":"m 336 160 l 743 160 l 676 0 l 47 0 l 132 979 l 407 979 l 336 160 l 336 160 z "},"m":{"ha":1094,"x_min":54,"x_max":1124,"o":"m 1124 979 l 1039 0 l 765 0 l 808 504 l 592 0 l 389 0 l 258 504 l 215 0 l 54 0 l 139 979 l 425 979 l 574 408 l 821 979 l 1124 979 z "},"n":{"ha":950,"x_min":56,"x_max":978,"o":"m 817 979 l 978 979 l 893 0 l 732 0 l 265 567 l 217 0 l 56 0 l 140 979 l 301 979 l 768 421 l 817 979 l 817 979 z "},"o":{"ha":986,"x_min":89,"x_max":974,"o":"m 972 544 q 938 333 971 435 q 844 153 906 232 q 695 28 783 75 q 493 -18 607 -18 l 490 -18 l 488 -18 q 293 28 374 -18 q 165 153 213 75 q 103 333 118 232 q 107 544 89 435 q 149 690 118 611 q 237 836 181 768 q 376 949 293 904 q 576 994 460 994 l 579 994 l 582 994 q 773 949 697 994 q 894 836 849 904 q 956 690 939 768 q 972 544 974 611 m 508 147 q 608 185 565 147 q 681 279 651 222 q 724 406 710 336 q 740 540 739 475 q 733 633 740 583 q 706 726 725 683 q 653 799 688 769 q 565 828 619 828 q 475 799 514 828 q 408 728 436 771 q 363 634 381 685 q 340 540 346 583 q 333 406 329 475 q 355 279 336 336 q 410 185 374 222 q 503 147 446 147 l 506 147 l 508 147 z "},"p":{"ha":915,"x_min":39,"x_max":958,"o":"m 588 979 q 870 888 782 979 q 926 631 958 796 q 888 542 917 583 q 810 471 860 501 q 691 423 761 440 q 529 406 621 406 l 349 406 l 314 0 l 39 0 l 124 979 l 588 979 m 672 683 q 663 759 678 732 q 624 800 649 786 q 568 817 599 814 q 510 819 538 819 l 385 819 l 363 565 l 506 565 q 551 569 524 565 q 603 585 578 572 q 649 621 629 597 q 672 683 668 644 z "},"q":{"ha":979,"x_min":89,"x_max":969,"o":"m 671 22 q 685 -45 675 -11 q 711 -109 694 -79 q 753 -163 728 -139 q 814 -200 778 -187 q 713 -226 768 -228 q 603 -197 657 -224 q 500 -123 549 -171 q 421 -10 451 -75 q 258 55 325 4 q 151 181 190 106 q 101 351 113 257 q 106 547 89 446 q 148 692 117 614 q 235 838 179 771 q 375 951 292 906 q 574 996 458 996 l 576 996 l 579 996 q 770 951 694 996 q 890 838 846 906 q 952 692 935 771 q 968 547 969 614 q 947 381 967 463 q 889 231 926 300 q 797 107 851 161 q 671 22 742 53 m 338 543 q 330 410 326 479 q 352 283 333 340 q 407 189 371 226 q 500 151 443 151 l 503 151 l 506 151 q 606 189 563 151 q 677 283 649 226 q 721 410 706 340 q 736 543 736 479 q 735 579 736 554 q 728 636 733 604 q 711 702 722 668 q 681 765 700 736 q 634 811 663 793 q 565 829 606 829 l 563 829 l 560 829 q 488 811 519 829 q 432 765 456 793 q 391 702 408 736 q 363 636 374 668 q 345 579 351 604 q 338 543 339 554 z "},"r":{"ha":947,"x_min":43,"x_max":963,"o":"m 571 0 l 350 378 l 318 0 l 43 0 l 128 979 l 592 979 q 874 888 786 979 q 931 631 963 796 q 849 496 915 554 q 658 415 782 438 l 903 0 l 571 0 m 389 819 l 367 565 l 510 565 q 555 569 528 565 q 608 585 582 572 q 653 621 633 597 q 676 683 672 644 q 667 759 682 732 q 628 800 653 786 q 572 817 603 814 q 514 819 542 819 l 389 819 z "},"s":{"ha":1001,"x_min":72,"x_max":993,"o":"m 557 596 q 653 578 601 588 q 753 555 704 569 q 847 517 803 540 q 922 461 892 494 q 965 380 951 428 q 967 268 978 332 q 915 150 956 203 q 813 60 874 97 q 677 3 753 24 q 522 -17 601 -17 q 394 -8 461 -17 q 265 26 326 0 q 152 99 203 51 q 72 224 101 146 l 221 326 q 265 227 225 271 q 357 168 306 183 q 488 148 424 147 q 605 165 553 149 q 691 206 657 181 q 729 257 725 231 q 720 303 735 286 q 680 331 706 321 q 619 348 654 342 q 550 360 585 354 q 463 376 511 367 q 366 400 414 385 q 273 438 318 415 q 196 492 228 460 q 148 569 164 525 q 142 672 132 613 q 217 842 157 772 q 359 949 276 911 q 538 996 442 988 q 724 982 635 1004 q 885 908 813 960 q 993 775 957 856 l 851 678 q 844 715 853 694 q 814 757 835 736 q 759 795 793 778 q 674 821 725 813 q 577 824 628 829 q 485 805 526 819 q 415 765 443 790 q 386 706 388 739 q 407 656 385 676 q 458 624 429 636 q 516 604 488 611 q 557 596 544 597 z "},"t":{"ha":983,"x_min":121,"x_max":1004,"o":"m 1004 819 l 700 819 l 629 0 l 354 0 l 425 819 l 121 819 l 188 979 l 965 979 l 1004 819 l 1004 819 z "},"u":{"ha":989,"x_min":88,"x_max":1010,"o":"m 1010 979 l 958 389 q 913 212 950 288 q 813 85 875 136 q 669 9 751 35 q 490 -17 588 -17 q 319 10 396 -17 q 191 88 243 36 q 113 215 139 139 q 96 389 88 290 l 147 979 l 422 979 l 365 333 q 370 271 363 301 q 395 215 378 240 q 440 175 413 190 q 507 160 468 160 q 574 174 543 160 q 626 213 604 189 q 662 268 649 238 q 678 332 675 299 l 735 979 l 1010 979 z "},"v":{"ha":958,"x_min":131,"x_max":997,"o":"m 613 0 l 350 0 l 131 979 l 418 979 l 558 347 l 808 979 l 997 979 l 613 0 z "},"w":{"ha":1286,"x_min":136,"x_max":1318,"o":"m 1133 979 l 1318 979 l 1036 0 l 696 0 l 671 332 l 576 0 l 250 0 l 136 979 l 417 979 l 489 343 l 647 979 l 903 979 l 949 339 l 1133 979 l 1133 979 z "},"x":{"ha":940,"x_min":53,"x_max":971,"o":"m 971 979 l 639 538 l 886 0 l 586 0 l 453 289 l 238 0 l 53 0 l 383 442 l 138 979 l 438 979 l 569 690 l 786 979 l 971 979 l 971 979 z "},"y":{"ha":926,"x_min":132,"x_max":964,"o":"m 779 979 l 964 979 l 619 515 l 575 0 l 300 0 l 344 514 l 132 979 l 432 979 l 565 690 l 779 979 l 779 979 z "},"z":{"ha":958,"x_min":46,"x_max":997,"o":"m 869 150 l 910 0 l 46 0 l 597 829 l 208 829 l 274 979 l 997 979 l 446 150 l 869 150 l 869 150 z "},"˘":{"ha":497,"x_min":136,"x_max":536,"o":"m 322 853 q 221 881 264 856 q 154 956 178 907 q 140 1042 136 994 l 228 1042 q 226 1011 226 1031 q 235 972 226 992 q 266 938 244 953 q 329 924 288 924 q 393 938 369 924 q 428 972 417 953 q 444 1011 440 992 q 449 1042 447 1031 l 536 1042 q 508 956 532 996 q 425 879 475 906 q 322 853 375 853 z "},"˙":{"ha":285,"x_min":126,"x_max":321,"o":"m 318 947 q 285 880 315 907 q 215 853 256 853 q 151 880 175 853 q 129 947 126 907 q 162 1014 132 986 q 232 1042 192 1042 q 297 1014 272 1042 q 318 947 321 986 z "},"˚":{"ha":278,"x_min":124,"x_max":318,"o":"m 229 1042 q 294 1014 269 1042 q 315 947 318 986 q 283 880 313 907 q 213 853 253 853 q 148 880 172 853 q 126 947 124 907 q 159 1014 129 986 q 229 1042 189 1042 m 217 899 q 251 913 236 899 q 268 947 267 928 q 258 981 271 967 q 225 994 244 994 q 191 981 206 994 q 174 947 176 967 q 185 913 172 928 q 217 899 197 899 z "},"@":{"ha":1293,"x_min":86,"x_max":1279,"o":"m 749 997 q 978 953 878 994 q 1147 840 1079 911 q 1247 674 1215 769 q 1269 471 1279 579 q 1234 319 1263 393 q 1158 187 1206 244 q 1043 93 1110 129 q 892 56 976 57 q 811 70 843 54 q 761 104 779 86 q 726 152 738 126 q 710 201 715 178 q 704 241 704 224 q 704 264 704 258 l 704 265 l 704 268 q 588 240 650 240 q 433 290 483 240 q 372 424 383 339 q 375 519 367 467 q 411 617 383 571 q 474 692 436 658 q 556 744 511 725 q 649 764 600 763 q 746 744 697 765 l 747 760 l 949 760 l 897 165 q 900 156 896 157 q 907 156 904 156 q 981 189 949 160 q 1035 263 1013 218 q 1072 362 1058 307 q 1092 472 1086 417 q 1090 624 1100 547 q 1040 763 1079 700 q 928 864 1001 825 q 738 903 854 903 q 576 876 651 903 q 440 797 500 849 q 340 668 381 744 q 285 494 299 592 q 292 338 272 411 q 360 210 313 264 q 482 126 408 156 q 647 101 556 96 l 639 1 q 414 -2 519 -26 q 233 89 308 22 q 122 259 158 156 q 107 496 86 363 q 181 711 125 617 q 323 870 238 806 q 517 967 408 935 q 749 997 625 1000 m 596 338 q 658 342 635 331 q 696 374 682 353 q 715 422 710 396 q 722 469 721 447 l 736 635 q 697 645 718 642 q 653 646 676 649 q 586 617 615 640 q 538 563 557 594 q 512 494 519 531 q 510 426 504 458 q 538 369 517 393 q 596 338 558 344 z "},"D":{"ha":958,"x_min":44,"x_max":964,"o":"m 960 567 q 914 344 954 447 q 801 164 874 240 q 624 44 728 88 q 386 0 519 0 l 44 0 l 135 1042 l 492 1042 q 687 1008 599 1042 q 838 911 775 974 q 932 761 900 849 q 960 567 964 674 m 378 160 q 517 190 458 160 q 614 275 575 221 q 674 403 653 329 q 701 563 694 476 q 699 690 707 632 q 663 791 692 749 q 581 857 635 833 q 440 881 528 881 l 396 881 l 333 160 l 378 160 z "},"B":{"ha":950,"x_min":42,"x_max":947,"o":"m 840 506 q 915 417 890 472 q 932 283 939 363 q 905 188 928 238 q 834 96 882 138 q 711 27 786 54 q 531 0 636 0 l 42 0 l 132 1042 l 596 1040 q 762 1013 692 1040 q 874 938 832 986 q 932 821 917 889 q 933 672 947 753 q 905 590 926 633 q 840 506 883 546 m 393 881 l 365 565 l 508 565 q 553 569 526 565 q 606 588 581 572 q 652 634 632 603 q 678 724 672 665 q 669 803 682 772 q 634 851 656 833 q 585 874 613 868 q 536 881 558 881 l 393 881 m 507 160 q 552 163 525 160 q 605 177 579 165 q 649 214 631 189 q 672 283 668 239 q 663 354 676 329 q 627 390 650 379 q 577 403 604 401 q 528 406 550 406 l 351 406 l 331 160 l 507 160 z "},"C":{"ha":958,"x_min":76,"x_max":983,"o":"m 561 -17 q 326 25 424 -24 q 172 158 229 74 q 95 354 114 243 q 97 582 76 465 q 147 733 110 653 q 245 882 183 813 q 394 1000 307 951 q 594 1057 482 1049 q 735 1049 669 1063 q 851 1002 800 1035 q 936 919 901 969 q 983 801 971 868 l 854 710 q 826 794 849 757 q 771 853 804 831 q 694 881 738 875 q 604 876 651 888 q 497 819 539 861 q 428 728 454 776 q 389 637 401 681 q 372 576 376 593 q 360 401 351 479 q 399 269 369 324 q 471 185 428 215 q 560 156 514 156 q 647 173 607 156 q 717 218 688 190 q 764 279 746 246 q 788 344 782 313 l 936 274 q 878 171 913 221 q 799 81 844 121 q 694 15 753 42 q 561 -17 636 -11 z "},"A":{"ha":994,"x_min":44,"x_max":949,"o":"m 661 0 l 621 181 l 304 181 l 233 0 l 44 0 l 454 1042 l 717 1042 l 949 0 l 661 0 m 368 342 l 585 342 l 507 694 l 368 342 z "},"E":{"ha":767,"x_min":42,"x_max":800,"o":"m 351 406 l 331 160 l 738 160 l 671 0 l 42 0 l 132 1042 l 761 1042 l 800 882 l 393 882 l 365 567 l 669 567 l 656 406 l 351 406 l 351 406 z "}}}
